General
Complete name                    : Constantine (2005) BRRip 720P (English+Hindi)
Format                           : Matroska
File size                        : 1.79 GiB
Duration                         : 2h 0mn
Overall bit rate                 : 2 122 Kbps

Video
ID                               : 1
Format                           : AVC
Format/Info                      : Advanced Video Codec
Format profile                   : High@L4.1
Format settings, CABAC           : Yes
Format settings, ReFrames        : 8 frames
Muxing mode                      : Header stripping
Codec ID                         : V_MPEG4/ISO/AVC
Duration                         : 2h 0mn
Bit rate                         : 1 641 Kbps
Width                            : 1 280 pixels
Height                           : 534 pixels
Display aspect ratio             : 2.35:1
Frame rate                       : 23.976 fps
Color space                      : YUV
Chroma subsampling               : 4:2:0
Bit depth                        : 8 bits
Scan type                        : Progressive
Bits/(Pixel*Frame)               : 0.100
Stream size                      : 1.35 GiB (75%)

Audio #1
ID                               : 2
Format                           : AC-3
Format/Info                      : Audio Coding 3
Mode extension                   : CM (complete main)
Muxing mode                      : Header stripping
Codec ID                         : A_AC3
Duration                         : 2h 0mn
Bit rate mode                    : Constant
Bit rate                         : 320 Kbps
Channel(s)                       : 6 channels
Channel positions                : Front: L C R, Side: L R, LFE
Sampling rate                    : 48.0 KHz
Bit depth                        : 16 bits
Compression mode                 : Lossy
Stream size                      : 276 MiB (15%)
Title                            : 5.1
Language                         : English

Audio #2
ID                               : 3
Format                           : AC-3
Format/Info                      : Audio Coding 3
Mode extension                   : CM (complete main)
Muxing mode                      : Header stripping
Codec ID                         : A_AC3
Duration                         : 2h 0mn
Bit rate mode                    : Constant
Bit rate                         : 160 Kbps
Channel(s)                       : 2 channels
Channel positions                : Front: L R
Sampling rate                    : 44.1 KHz
Bit depth                        : 16 bits
Compression mode                 : Lossy
Delay relative to video          : 2s 351ms
Stream size                      : 138 MiB (8%)
Title                            : nsh168810
Language                         : Hindi


Screenshots :
 
http://img819.imageshack.us/img819/5244/constantine2005brrip720.jpg 
http://img8.imageshack.us/img8/5244/constantine2005brrip720.jpg 
http://img580.imageshack.us/img580/5244/constantine2005brrip720.jpg 
http://img534.imageshack.us/img534/5244/constantine2005brrip720.jpg 
http://img841.imageshack.us/img841/5244/constantine2005brrip720.jpg 
http://img690.imageshack.us/img690/5244/constantine2005brrip720.jpg 
http://img714.imageshack.us/img714/5244/constantine2005brrip720.jpg
